<svg id="visual" viewBox="0 0 900 600" width="900" height="600" xmlns="http://www.w3.org/2000/svg" xmlns:xlink="http://www.w3.org/1999/xlink" version="1.1"><path d="M0 79L37.5 78C75 77 150 75 225 79C300 83 375 93 450 94C525 95 600 87 675 93C750 99 825 119 862.5 129L900 139L900 0L862.5 0C825 0 750 0 675 0C600 0 525 0 450 0C375 0 300 0 225 0C150 0 75 0 37.5 0L0 0Z" fill="#081c31"></path><path d="M0 325L37.5 299C75 273 150 221 225 218C300 215 375 261 450 274C525 287 600 267 675 282C750 297 825 347 862.5 372L900 397L900 137L862.5 127C825 117 750 97 675 91C600 85 525 93 450 92C375 91 300 81 225 77C150 73 75 75 37.5 76L0 77Z" fill="#09213c"></path><path d="M0 475L37.5 450C75 425 150 375 225 364C300 353 375 381 450 378C525 375 600 341 675 349C750 357 825 407 862.5 432L900 457L900 395L862.5 370C825 345 750 295 675 280C600 265 525 285 450 272C375 259 300 213 225 216C150 219 75 271 37.5 297L0 323Z" fill="#112e52"></path><path d="M0 601L37.5 601C75 601 150 601 225 601C300 601 375 601 450 601C525 601 600 601 675 601C750 601 825 601 862.5 601L900 601L900 455L862.5 430C825 405 750 355 675 347C600 339 525 373 450 376C375 379 300 351 225 362C150 373 75 423 37.5 448L0 473Z" fill="#204574"></path></svg>